<svg xmlns="http://www.w3.org/2000/svg" viewBox="0 0 34.445 20.559" height="77.704" width="130.185"><path d="M16.791 20.523c-.019-.017-.244-.06-.5-.093l-.72-.095a6.976 6.976 0 01-.381-.06 46.88 46.88 0 00-.466-.091c-1.264-.243-3.247-1.1-4.565-1.973-1.062-.702-2.628-2.242-3.256-3.2-1.223-1.865-1.771-3.735-1.677-5.716.162-3.405 2.187-6.328 5.557-8.022.394-.198.692-.36.663-.36-.192 0-1.714.603-2.564 1.015-1.326.645-2.438 1.396-3.354 2.268C4.231 5.43 3.487 6.553 2.99 8.026c-.235.695-.277.953-.312 1.905-.03.82-.004 1.273.099 1.77.768 3.717 4.379 6.788 9.573 8.143.656.171 2.386.47 2.134.442-.233-.026-2.505-.4-3.273-.589C1.6 17.35-2.755 10.671 1.833 5.313 3.509 3.355 6.445 1.724 9.913.826c2.175-.564 5.049-.89 7.182-.816.745.026 1.45.067 1.566.092 1.938.402 2.846.697 4.191 1.363 3.126 1.548 5.325 4.115 6.16 7.193.155.574.184.91.187 2.161.003 1.285-.023 1.578-.19 2.201-.245.906-.98 2.411-1.538 3.145-.896 1.18-2.255 2.293-3.687 3.024-.373.19-.643.347-.6.348.19.007 1.862-.663 2.632-1.055 1.274-.648 2.271-1.349 3.226-2.267 1.323-1.271 2.178-2.652 2.583-4.168.233-.876.257-2.517.049-3.365-.924-3.756-4.442-6.705-9.537-7.993-.626-.159-2.445-.46-2.471-.486-.026-.025.048-.026.164-.002.117.025 1.917.278 2.43.378 3.872.757 7.354 2.428 9.595 4.603 1.19 1.154 1.844 2.152 2.31 3.52.25.733.275.9.28 1.863.006 1.201-.117 1.784-.582 2.768-1.128 2.389-3.701 4.42-7.273 5.739-1.782.658-4.068 1.128-6.597 1.356-1.31.118-3.118.172-3.202.096zm2.531-.431c3.14-.847 5.723-3.365 6.822-6.654.4-1.197.516-1.97.516-3.423 0-1.455-.116-2.226-.518-3.428-.828-2.48-2.76-4.676-4.993-5.678-.575-.258-.857-.29-.377-.041.434.224 1.394 1.188 1.827 1.834.791 1.178 1.364 2.798 1.57 4.44.148 1.17.059 3.567-.172 4.642-.932 4.346-3.507 7.711-6.484 8.474l-.503.129.762-.042a9.105 9.105 0 001.55-.253zm-2.466-.09c1.637-.8 3.372-3.835 4.262-7.451.787-3.2.884-6.8.248-9.222-.35-1.334-1.088-2.527-1.788-2.889-.322-.166-.346-.153-.206.117.225.435.324 1.318.32 2.854-.014 5.422-1.97 14.367-3.61 16.501l-.318.415.32-.052c.176-.028.523-.151.772-.273zm-1.862-.336c-.169-.469-.182-.665-.18-2.581.003-2.182.105-3.378.51-5.97.767-4.913 2.118-9.459 3.166-10.652l.254-.29-.388.073c-2.235.417-4.499 4.425-5.364 9.496-.794 4.656-.035 9.092 1.75 10.224.217.137.403.24.414.228.012-.011-.061-.249-.162-.528zm-.99.172c0-.022-.107-.095-.238-.163-.404-.209-1.09-.828-1.533-1.385-2.152-2.7-2.648-7.372-1.218-11.485 1.168-3.361 3.397-5.84 5.868-6.527l.466-.13-.762.039c-2.352.12-5 1.629-6.61 3.766C8.53 5.875 7.803 8.054 7.8 10.48c-.003 2.248.556 4.11 1.792 5.963.835 1.252 2.46 2.615 3.8 3.186.636.271.614.264.614.208z" fill="#99cc01"/></svg>